<svg width="90" height="17" viewBox="0 0 90 17" fill="none" xmlns="http://www.w3.org/2000/svg">
<path d="M8.64412 0L10.6847 6.28032H17.2882L11.9459 10.1618L13.9865 16.4421L8.64412 12.5606L3.30176 16.4421L5.34236 10.1618L9.63102e-07 6.28032H6.60352L8.64412 0Z" fill="#D8A648"/>
<path d="M26.8221 0L28.8627 6.28032H35.4662L30.1238 10.1618L32.1644 16.4421L26.8221 12.5606L21.4797 16.4421L23.5203 10.1618L18.1779 6.28032H24.7815L26.8221 0Z" fill="#D8A648"/>
<path d="M45 0L47.0406 6.28032H53.6441L48.3018 10.1618L50.3424 16.4421L45 12.5606L39.6576 16.4421L41.6982 10.1618L36.3559 6.28032H42.9594L45 0Z" fill="#D8A648"/>
<path d="M63.1779 0L65.2185 6.28032H71.8221L66.4797 10.1618L68.5203 16.4421L63.1779 12.5606L57.8356 16.4421L59.8762 10.1618L54.5338 6.28032H61.1373L63.1779 0Z" fill="#D8A648"/>
<path d="M81.3559 0L83.3965 6.28032H90L84.6576 10.1618L86.6982 16.4421L81.3559 12.5606L76.0135 16.4421L78.0541 10.1618L72.7118 6.28032H79.3153L81.3559 0Z" fill="#D8A648"/>
</svg>
