<svg width="15" height="15" viewBox="0 0 15 15" fill="none" xmlns="http://www.w3.org/2000/svg">
<path d="M4.35001 0H10.65C13.05 0 15 1.95001 15 4.35001V10.65C15 11.8037 14.5417 12.9102 13.726 13.726C12.9102 14.5417 11.8037 15 10.65 15H4.35001C1.95001 15 0 13.05 0 10.65V4.35001C0 3.19632 0.458304 2.08987 1.27409 1.27409C2.08987 0.458304 3.19632 0 4.35001 0ZM4.20001 1.5C3.48393 1.5 2.79717 1.78447 2.29082 2.29082C1.78447 2.79717 1.5 3.48393 1.5 4.20001V10.8C1.5 12.2925 2.70751 13.5 4.20001 13.5H10.8C11.5161 13.5 12.2029 13.2156 12.7092 12.7092C13.2156 12.2029 13.5 11.5161 13.5 10.8V4.20001C13.5 2.70751 12.2925 1.5 10.8 1.5H4.20001ZM11.4375 2.62501C11.6862 2.62501 11.9246 2.72378 12.1004 2.8996C12.2763 3.07541 12.375 3.31387 12.375 3.56251C12.375 3.81115 12.2763 4.04961 12.1004 4.22542C11.9246 4.40124 11.6862 4.50001 11.4375 4.50001C11.1889 4.50001 10.9504 4.40124 10.7746 4.22542C10.5988 4.04961 10.5 3.81115 10.5 3.56251C10.5 3.31387 10.5988 3.07541 10.7746 2.8996C10.9504 2.72378 11.1889 2.62501 11.4375 2.62501ZM7.50002 3.75001C8.49459 3.75001 9.44842 4.1451 10.1517 4.84836C10.8549 5.55163 11.25 6.50546 11.25 7.50002C11.25 8.49459 10.8549 9.44842 10.1517 10.1517C9.44842 10.8549 8.49459 11.25 7.50002 11.25C6.50546 11.25 5.55163 10.8549 4.84836 10.1517C4.1451 9.44842 3.75001 8.49459 3.75001 7.50002C3.75001 6.50546 4.1451 5.55163 4.84836 4.84836C5.55163 4.1451 6.50546 3.75001 7.50002 3.75001ZM7.50002 5.25001C6.90328 5.25001 6.33098 5.48707 5.90903 5.90903C5.48707 6.33098 5.25001 6.90328 5.25001 7.50002C5.25001 8.09676 5.48707 8.66906 5.90903 9.09102C6.33098 9.51297 6.90328 9.75003 7.50002 9.75003C8.09676 9.75003 8.66906 9.51297 9.09102 9.09102C9.51297 8.66906 9.75003 8.09676 9.75003 7.50002C9.75003 6.90328 9.51297 6.33098 9.09102 5.90903C8.66906 5.48707 8.09676 5.25001 7.50002 5.25001Z" fill="white"/>
</svg>
