<svg width="26" height="25" viewBox="0 0 26 25" fill="none" xmlns="http://www.w3.org/2000/svg">
<path d="M13 0C5.84999 0 0 5.63504 0 12.5753C0 18.8504 4.75799 24.0587 10.972 25V16.2149H7.66999V12.5753H10.972V9.80171C10.972 6.65161 12.909 4.91968 15.886 4.91968C17.303 4.91968 18.785 5.15813 18.785 5.15813V8.25803H17.147C15.535 8.25803 15.028 9.2244 15.028 10.2159V12.5753H18.642L18.057 16.2149H15.028V25C18.0914 24.5329 20.8808 23.024 22.8929 20.7456C24.9049 18.4671 26.0069 15.5693 26 12.5753C26 5.63504 20.15 0 13 0Z" fill="white"/>
</svg>
