<svg width="26" height="17" viewBox="0 0 26 17" fill="none" xmlns="http://www.w3.org/2000/svg">
<path d="M10.4 12.1429L17.147 8.5L10.4 4.85714V12.1429ZM25.428 2.635C25.597 3.20571 25.714 3.97071 25.792 4.94214C25.883 5.91357 25.922 6.75143 25.922 7.48L26 8.5C26 11.1593 25.792 13.1143 25.428 14.365C25.103 15.4579 24.349 16.1621 23.179 16.4657C22.568 16.6236 21.45 16.7329 19.734 16.8057C18.044 16.8907 16.497 16.9271 15.067 16.9271L13 17C7.553 17 4.16 16.8057 2.821 16.4657C1.651 16.1621 0.897 15.4579 0.572 14.365C0.403 13.7943 0.286 13.0293 0.208 12.0579C0.117 11.0864 0.0779999 10.2486 0.0779999 9.52L0 8.5C0 5.84071 0.208 3.88571 0.572 2.635C0.897 1.54214 1.651 0.837857 2.821 0.534286C3.432 0.376429 4.55 0.267143 6.266 0.194286C7.956 0.109286 9.503 0.0728571 10.933 0.0728571L13 0C18.447 0 21.84 0.194286 23.179 0.534286C24.349 0.837857 25.103 1.54214 25.428 2.635Z" fill="white"/>
</svg>
