<svg width="19" height="19" viewBox="0 0 19 19" fill="none" xmlns="http://www.w3.org/2000/svg">
<path d="M5.20603 13.7615C8.16773 16.7183 11.7648 19 14.706 19C16.028 19 17.186 18.5395 18.1187 17.5164C18.6617 16.9127 19 16.2067 19 15.511C19 14.9994 18.8052 14.5083 18.3236 14.1605L15.1775 11.93C14.706 11.6026 14.2961 11.4389 13.9272 11.4389C13.466 11.4389 13.0459 11.7049 12.5744 12.1653L11.8468 12.8815C11.7341 12.9941 11.5906 13.0453 11.4574 13.0453C11.3037 13.0453 11.1499 12.9838 11.0474 12.9326C10.412 12.595 9.3258 11.6639 8.31121 10.6613C7.30689 9.65853 6.37431 8.57407 6.04637 7.93968C5.99514 7.82713 5.93365 7.68389 5.93365 7.53042C5.93365 7.39741 5.97464 7.26439 6.08737 7.15185L6.81498 6.40495C7.2659 5.93429 7.5426 5.52504 7.5426 5.05438C7.5426 4.68605 7.37863 4.28702 7.03019 3.80613L4.82685 0.705973C4.47841 0.214859 3.96602 0 3.41261 0C2.73624 0 2.03937 0.306944 1.43473 0.890143C0.440668 1.84167 0 3.0183 0 4.31771C0 7.25416 2.24434 10.8148 5.20603 13.7615Z" fill="white"/>
</svg>
