<svg width="26" height="25" viewBox="0 0 26 25" fill="none" xmlns="http://www.w3.org/2000/svg">
<path d="M13.0523 0C5.91859 0 0.104523 5.5625 0.104523 12.3875C0.104523 14.575 0.705528 16.7 1.82915 18.575L0 25L6.8593 23.275C8.75377 24.2625 10.8834 24.7875 13.0523 24.7875C20.1859 24.7875 26 19.225 26 12.4C26 9.0875 24.6543 5.975 22.2111 3.6375C19.7678 1.2875 16.5146 0 13.0523 0ZM13.0653 2.0875C15.9397 2.0875 18.6312 3.1625 20.6693 5.1125C22.6945 7.0625 23.8181 9.65 23.8181 12.4C23.8181 18.075 18.9839 22.6875 13.0523 22.6875C11.1186 22.6875 9.22412 22.2 7.57789 21.25L7.18593 21.0375L3.10955 22.0625L4.19397 18.2625L3.93266 17.8625C2.86131 16.25 2.28643 14.3375 2.28643 12.3875C2.2995 6.7125 7.1206 2.0875 13.0653 2.0875ZM8.46633 6.6625C8.25729 6.6625 7.90452 6.7375 7.60402 7.05C7.31658 7.3625 6.46734 8.125 6.46734 9.6375C6.46734 11.1625 7.63015 12.625 7.77387 12.8375C7.95678 13.05 10.0734 16.175 13.3266 17.5C14.0975 17.8375 14.6985 18.025 15.1688 18.1625C15.9397 18.4 16.6452 18.3625 17.207 18.2875C17.8342 18.2 19.1146 17.5375 19.3889 16.8125C19.6633 16.0875 19.6633 15.475 19.5849 15.3375C19.4935 15.2125 19.2844 15.1375 18.9578 15C18.6312 14.825 17.0372 14.075 16.7497 13.975C16.4492 13.875 16.2663 13.825 16.0181 14.125C15.809 14.4375 15.1819 15.1375 14.999 15.3375C14.803 15.55 14.6201 15.575 14.3065 15.425C13.9668 15.2625 12.9216 14.9375 11.6935 13.8875C10.7266 13.0625 10.0864 12.05 9.89045 11.7375C9.73367 11.4375 9.87739 11.25 10.0342 11.1125C10.1779 10.975 10.3869 10.75 10.5176 10.5625C10.6874 10.3875 10.7397 10.25 10.8442 10.05C10.9487 9.8375 10.8965 9.6625 10.8181 9.5125C10.7397 9.375 10.0864 7.825 9.81206 7.2125C9.55075 6.6125 9.28945 6.6875 9.0804 6.675C8.89749 6.675 8.68844 6.6625 8.46633 6.6625Z" fill="white"/>
</svg>
