<svg width="17" height="14" viewBox="0 0 17 14" fill="none" xmlns="http://www.w3.org/2000/svg">
<path fill-rule="evenodd" clip-rule="evenodd" d="M3.4 0H13.6C15.4778 0 17 1.47483 17 3.29412V10.7059C17 12.5252 15.4778 14 13.6 14H3.4C1.52223 14 0 12.5252 0 10.7059V3.29412C0 1.47483 1.52223 0 3.4 0ZM9.69 7.86471L15.079 3.99412C15.3195 3.82281 15.3726 3.49574 15.198 3.26118C15.1148 3.14918 14.9883 3.07461 14.8474 3.05444C14.7064 3.03427 14.5631 3.07023 14.45 3.15412L9.0015 7C8.86516 7.13845 8.67626 7.21679 8.47875 7.21679C8.28124 7.21679 8.09234 7.13845 7.956 7L2.55 3.15412C2.43744 3.07287 2.29608 3.03848 2.15726 3.05858C2.01844 3.07868 1.89363 3.1516 1.8105 3.26118C1.63406 3.49361 1.68331 3.82029 1.921 3.99412L7.276 7.82353C7.60922 8.12979 8.04924 8.30326 8.5085 8.30941C8.94583 8.30933 9.36731 8.15069 9.69 7.86471Z" fill="white"/>
</svg>
