<svg width="50" height="10" viewBox="0 0 50 10" fill="none" xmlns="http://www.w3.org/2000/svg">
<path d="M4.80229 0L5.93596 3.48907H9.60458L6.6366 5.64543L7.77027 9.1345L4.80229 6.97814L1.83431 9.1345L2.96798 5.64543L-2.88931e-06 3.48907H3.66862L4.80229 0Z" fill="#D8A648"/>
<path d="M14.9011 0L16.0348 3.48907H19.7034L16.7355 5.64543L17.8691 9.1345L14.9011 6.97814L11.9332 9.1345L13.0668 5.64543L10.0989 3.48907H13.7675L14.9011 0Z" fill="#D8A648"/>
<path d="M25 0L26.1337 3.48907H29.8023L26.8343 5.64543L27.968 9.1345L25 6.97814L22.032 9.1345L23.1657 5.64543L20.1977 3.48907H23.8663L25 0Z" fill="#D8A648"/>
<path d="M35.0989 0L36.2325 3.48907H39.9011L36.9332 5.64543L38.0668 9.1345L35.0989 6.97814L32.1309 9.1345L33.2645 5.64543L30.2966 3.48907H33.9652L35.0989 0Z" fill="#D8A648"/>
<path d="M45.1977 0L46.3314 3.48907H50L47.032 5.64543L48.1657 9.1345L45.1977 6.97814L42.2297 9.1345L43.3634 5.64543L40.3954 3.48907H44.064L45.1977 0Z" fill="#D8A648"/>
</svg>
